# xmcd
#
# Track frame offsets:
#  150
#  19857
#  40646
#  62647
#  88420
#  107790
#  126576
#  143227
#  165211
#  190103
#  211572
#  234266
#  253367
#  266649
#  284417
#  298738
#
# Disc length: 4175 seconds
#
# Revision: 0
# Processed by: cddbd v1.5.1PL2 Copyright (c) Steve Scherf et al.
# Submitted via: Collectorz.com_Music_Collector 6.11
#
DISCID=ed104d10
DTITLE=Mean Gene Kelton - Compilation - Most Popular Songs
DYEAR=2006
DGENRE=Blues -  Blues Texas Style
TTITLE0=Texas Honey
TTITLE1=Too White To Play The Blues
TTITLE2=If This Guitar Could Talk
TTITLE3=Tears On My Guitar
TTITLE4=Going Back To Memphis
TTITLE5=Cruisin' Texas Avenue
TTITLE6=Big Legged Mama
TTITLE7=Leaving Paradise (Boodbye Louisiana)
TTITLE8=My Baby Don't Wear No Panties
TTITLE9=Mean Guitar
TTITLE10=Eaven Meaner
TTITLE11=Give Blues A Chance
TTITLE12=Two Thangs
TTITLE13=Guess Who
TTITLE14=I Love My Job
TTITLE15=So Wrong ... So Right
EXTD=
EXTT0=
EXTT1=
EXTT2=
EXTT3=
EXTT4=
EXTT5=
EXTT6=
EXTT7=
EXTT8=
EXTT9=
EXTT10=
EXTT11=
EXTT12=
EXTT13=
EXTT14=
EXTT15=
PLAYORDER=
